<svg width="20" height="19" viewBox="0 0 20 19" fill="none" xmlns="http://www.w3.org/2000/svg">
<path d="M13 14.9999C13.8643 15.6513 14.9177 16.0028 16 16.0009C17.082 16.0028 18.1351 15.6521 19 15.0019V18.2479C19.0003 18.3763 18.9675 18.5026 18.905 18.6148C18.8424 18.7269 18.7521 18.8211 18.6427 18.8883C18.5334 18.9556 18.4085 18.9936 18.2802 18.9988C18.1519 19.004 18.0245 18.9761 17.91 18.9179L17.82 18.8629L16 17.5909L14.18 18.8629C14.0749 18.9363 13.9527 18.9815 13.8252 18.9943C13.6976 19.007 13.5689 18.9868 13.4514 18.9357C13.3338 18.8845 13.2313 18.8041 13.1537 18.7021C13.0761 18.6001 13.0259 18.4798 13.008 18.3529L13.001 18.2479L13 15.0009V14.9999ZM17.25 0.00390625C17.9503 0.00387151 18.6242 0.270998 19.1343 0.750799C19.6444 1.2306 19.9522 1.88693 19.995 2.58591L20 2.75391L20.001 7.99991C19.5955 7.46 19.0853 7.00733 18.501 6.66891L18.5 2.75391C18.5001 2.44445 18.3855 2.14594 18.1782 1.91614C17.971 1.68634 17.6858 1.54159 17.378 1.50991L17.25 1.50391H2.75C2.44054 1.50377 2.14203 1.61842 1.91223 1.82568C1.68244 2.03294 1.53769 2.31807 1.506 2.62591L1.5 2.75391V12.2539C1.5 12.9009 1.992 13.4339 2.622 13.4969L2.75 13.5039H11.67C11.77 13.6759 11.88 13.8419 12 13.9999V15.0039H2.75C2.04955 15.0039 1.37549 14.7367 0.865376 14.2566C0.35526 13.7766 0.0475365 13.1201 0.00500012 12.4209L3.38855e-09 12.2539V2.75391C-3.47392e-05 2.05362 0.267092 1.3797 0.746893 0.869609C1.22669 0.359518 1.88302 0.0516875 2.582 0.00890637L2.75 0.00390625H17.25ZM16 6.99991C17.0609 6.99991 18.0783 7.42133 18.8284 8.17148C19.5786 8.92163 20 9.93904 20 10.9999C20 12.0608 19.5786 13.0782 18.8284 13.8283C18.0783 14.5785 17.0609 14.9999 16 14.9999C14.9391 14.9999 13.9217 14.5785 13.1716 13.8283C12.4214 13.0782 12 12.0608 12 10.9999C12 9.93904 12.4214 8.92163 13.1716 8.17148C13.9217 7.42133 14.9391 6.99991 16 6.99991ZM9.25 9.49991C9.44002 9.49996 9.62294 9.57215 9.76179 9.70188C9.90064 9.83161 9.98507 10.0092 9.99803 10.1988C10.011 10.3884 9.95148 10.5758 9.83157 10.7232C9.71165 10.8706 9.54025 10.967 9.352 10.9929L9.25 10.9999H4.75C4.55998 10.9998 4.37706 10.9277 4.23821 10.7979C4.09936 10.6682 4.01493 10.4906 4.00197 10.301C3.98902 10.1114 4.04852 9.92401 4.16843 9.77661C4.28835 9.6292 4.45975 9.53281 4.648 9.50691L4.75 9.49991H9.25ZM15.25 3.99991C15.44 3.99996 15.6229 4.07215 15.7618 4.20188C15.9006 4.33161 15.9851 4.50921 15.998 4.69879C16.011 4.88837 15.9515 5.0758 15.8316 5.22321C15.7117 5.37061 15.5402 5.46701 15.352 5.49291L15.25 5.49991H4.75C4.55998 5.49985 4.37706 5.42766 4.23821 5.29793C4.09936 5.16821 4.01493 4.99061 4.00197 4.80103C3.98902 4.61144 4.04852 4.42401 4.16843 4.27661C4.28835 4.1292 4.45975 4.03281 4.648 4.00691L4.75 3.99991H15.25Z" fill="white"/>
</svg>
