<svg width="21" height="16" viewBox="0 0 21 16" fill="none" xmlns="http://www.w3.org/2000/svg">
<path d="M2.80002 0C2.1635 0 1.55306 0.252856 1.10297 0.702944C0.652881 1.15303 0.400024 1.76348 0.400024 2.4V7.2C0.400024 7.83652 0.652881 8.44697 1.10297 8.89706C1.55306 9.34714 2.1635 9.6 2.80002 9.6H10.0084C10.0029 9.40005 10.0001 9.20003 10 9V4.8C13.876 4.8 14.4976 3.798 14.9368 3.0888C15.1768 2.7 15.3628 2.4 16 2.4C16.636 2.4 16.8232 2.7 17.0632 3.0888C17.2996 3.4692 17.5864 3.9336 18.4 4.2828V2.4C18.4 1.76348 18.1472 1.15303 17.6971 0.702944C17.247 0.252856 16.6365 0 16 0H2.80002ZM15.436 4.5984C15.4121 4.65059 15.384 4.70075 15.352 4.7484C15.2258 4.9306 15.0696 5.09006 14.89 5.22C14.4136 5.5776 13.498 6 11.8 6C11.6409 6 11.4883 6.06321 11.3758 6.17573C11.2632 6.28826 11.2 6.44087 11.2 6.6V9C11.2 10.2408 11.3524 11.5644 12.028 12.7476C12.7156 13.9488 13.8976 14.9316 15.8104 15.5688C15.9335 15.6098 16.0665 15.6098 16.1896 15.5688C18.1024 14.9328 19.2844 13.9488 19.9708 12.7488C20.6476 11.5644 20.8 10.2408 20.8 9V6.6C20.8 6.44087 20.7368 6.28826 20.6243 6.17573C20.5118 6.06321 20.3592 6 20.2 6C18.5032 6 17.5864 5.5776 17.11 5.22C16.9309 5.08995 16.7751 4.9305 16.6492 4.7484C16.6173 4.70114 16.5892 4.65138 16.5652 4.5996C16.5238 4.48291 16.4473 4.3819 16.3461 4.31042C16.245 4.23894 16.1243 4.2005 16.0004 4.20037C15.8766 4.20024 15.7558 4.23842 15.6545 4.30968C15.5532 4.38095 15.4765 4.4818 15.4348 4.5984H15.436ZM16.5676 4.6068L16.5688 4.6092L16.5652 4.5996L16.5664 4.6032L16.5676 4.6068ZM15.4336 4.6032L15.4348 4.5984L15.4312 4.6104V4.6068L15.4336 4.6032Z" fill="white"/>
</svg>
