<svg width="18" height="20" viewBox="0 0 18 20" fill="none" xmlns="http://www.w3.org/2000/svg">
<path d="M8.99998 0.400024C7.72694 0.400024 6.50604 0.905737 5.60586 1.80591C4.70569 2.70609 4.19998 3.92699 4.19998 5.20002C4.19998 6.47306 4.70569 7.69396 5.60586 8.59414C6.50604 9.49431 7.72694 10 8.99998 10C10.273 10 11.4939 9.49431 12.3941 8.59414C13.2943 7.69396 13.8 6.47306 13.8 5.20002C13.8 3.92699 13.2943 2.70609 12.3941 1.80591C11.4939 0.905737 10.273 0.400024 8.99998 0.400024ZM3.01078 11.2C2.69474 11.1988 2.38156 11.2599 2.0892 11.3799C1.79685 11.5 1.53106 11.6765 1.30709 11.8995C1.08311 12.1225 0.905357 12.3875 0.784015 12.6793C0.662673 12.9711 0.600131 13.284 0.599976 13.6C0.599976 15.6292 1.59958 17.1592 3.16198 18.1564C4.70038 19.1368 6.77398 19.6 8.99998 19.6C11.226 19.6 13.2996 19.1368 14.838 18.1564C16.4004 17.1604 17.4 15.628 17.4 13.6C17.4 12.9635 17.1471 12.3531 16.697 11.903C16.2469 11.4529 15.6365 11.2 15 11.2H3.01078Z" fill="url(#paint0_linear_88_5903)"/>
<defs>
<linearGradient id="paint0_linear_88_5903" x1="8.99998" y1="0.400024" x2="8.99998" y2="19.6" gradientUnits="userSpaceOnUse">
<stop stop-color="#3CCE2A"/>
<stop offset="1" stop-color="#006A04"/>
</linearGradient>
</defs>
</svg>
