<svg width="411" height="409" viewBox="0 0 411 409" fill="none" xmlns="http://www.w3.org/2000/svg">
<path d="M350.289 204.89C269.781 158.449 139.68 158.449 59.6914 204.89C-20.2976 251.332 -19.8332 326.741 60.7113 373.219C141.256 419.697 271.32 419.706 351.309 373.219C431.298 326.731 430.833 251.378 350.289 204.89Z" fill="#FAFAFA"/>
<path d="M378.336 329.7C380.922 331.194 380.931 333.616 378.336 335.109L367.773 341.201C366.329 341.938 364.731 342.322 363.11 342.322C361.49 342.322 359.892 341.938 358.448 341.201L242.663 274.334C240.076 272.85 240.058 270.428 242.663 268.935L253.217 262.842C254.662 262.106 256.261 261.722 257.884 261.722C259.506 261.722 261.105 262.106 262.55 262.842L378.336 329.7Z" fill="#F0F0F0"/>
<path d="M345.845 339.298C348.44 340.801 348.449 343.214 345.845 344.707L335.282 350.799C333.836 351.536 332.237 351.92 330.615 351.92C328.992 351.92 327.393 351.536 325.948 350.799L227.054 293.676C224.468 292.183 224.45 289.76 227.054 288.267L237.618 282.175C239.063 281.439 240.662 281.055 242.284 281.055C243.907 281.055 245.506 281.439 246.951 282.175L345.845 339.298Z" fill="#F0F0F0"/>
<path d="M60.001 334.809C52.9073 330.711 41.4334 330.711 34.3761 334.809C27.3188 338.906 27.3643 345.554 34.4581 349.652C41.5518 353.75 53.0347 353.75 60.083 349.652C67.1312 345.554 67.0856 338.906 60.001 334.809Z" fill="#F0F0F0"/>
<path d="M95.5787 325.193C117.497 312.535 152.948 312.535 174.712 325.193C196.476 337.851 196.375 358.376 174.448 371.034C152.52 383.691 117.078 383.691 95.3146 371.034C73.5508 358.376 73.6509 337.851 95.5787 325.193Z" fill="#F0F0F0"/>
<path d="M69.5078 284.579L116.605 257.388C116.929 257.207 117.199 256.943 117.388 256.623C117.576 256.303 117.675 255.938 117.675 255.567C117.675 255.196 117.576 254.831 117.388 254.511C117.199 254.191 116.929 253.927 116.605 253.746L75.099 229.66C74.782 229.477 74.4224 229.38 74.0563 229.38C73.6903 229.38 73.3307 229.477 73.0136 229.66L24.8782 257.452C24.5539 257.633 24.2838 257.897 24.0958 258.217C23.9077 258.537 23.8086 258.902 23.8086 259.273C23.8086 259.644 23.9077 260.009 24.0958 260.329C24.2838 260.649 24.5539 260.914 24.8782 261.094L65.3371 284.607C65.9738 284.968 66.6942 285.155 67.4261 285.15C68.158 285.146 68.8758 284.949 69.5078 284.579Z" fill="#F0F0F0"/>
<path d="M216.109 193.827C204.999 187.452 187.042 187.452 176.042 193.827C165.041 200.201 165.059 210.646 176.169 217.057C187.279 223.467 205.236 223.476 216.236 217.057C227.237 210.637 227.218 200.256 216.109 193.827Z" fill="#F0F0F0"/>
<path d="M123.662 51.7242L120.093 49.6479L82.3838 71.3389V75.4641L123.662 51.7242Z" fill="#F5F5F5"/>
<path d="M123.662 51.7241L82.3838 75.464V80.181L123.671 56.4593L123.662 51.7241Z" fill="#E0E0E0"/>
<path d="M60.8203 87.8755L57.2506 85.7993L19.5327 107.49V111.625L60.8203 87.8755Z" fill="#F5F5F5"/>
<path d="M60.8203 87.8755L19.5327 111.624V116.332L60.8294 92.6107L60.8203 87.8755Z" fill="#E0E0E0"/>
<path d="M123.462 12.085L119.892 10.0088L120.102 116.797L123.671 118.874L123.462 12.085Z" fill="#F0F0F0"/>
<path d="M123.672 118.873L120.102 116.797L79.0239 140.382L82.5936 142.458L123.672 118.873Z" fill="#F5F5F5"/>
<path d="M127.787 121.223L78.4956 149.543L78.2588 33.3206L127.551 4.99121L127.787 121.223ZM82.566 142.459L123.644 118.873L123.435 12.0849L82.3839 35.6609L82.566 142.459Z" fill="#E0E0E0"/>
<path d="M127.551 4.99094L123.99 2.92383L74.6892 31.2441L78.2588 33.3204L127.551 4.99094Z" fill="#F5F5F5"/>
<path d="M78.2588 33.3204L74.6892 31.2441L74.926 147.467L78.4956 149.543L78.2588 33.3204Z" fill="#F0F0F0"/>
<path d="M60.6202 48.2364L57.0505 46.1602L57.26 152.958L60.8296 155.034L60.6202 48.2364Z" fill="#F0F0F0"/>
<path d="M60.8296 155.034L57.26 152.958L16.1819 176.533L19.7424 178.61L60.8296 155.034Z" fill="#F5F5F5"/>
<path d="M64.9457 157.374L15.6538 185.685L15.417 69.4629L64.7089 41.1426L64.9457 157.374ZM19.7333 178.61L60.8206 155.034L60.6202 48.2363L19.533 71.8578L19.7333 178.61Z" fill="#E0E0E0"/>
<path d="M64.709 41.1519L61.1393 39.0757L11.8474 67.396L15.417 69.4722L64.709 41.1519Z" fill="#F5F5F5"/>
<path d="M15.417 69.4722L11.8474 67.396L12.0842 183.628L15.6538 185.695L15.417 69.4722Z" fill="#F0F0F0"/>
<path d="M106.124 253.955L110.14 256.295L110.131 251.642L106.124 253.955Z" fill="#E6E6E6"/>
<path d="M109.967 206.484L70.8284 229.086L109.967 206.484Z" fill="#CFCFCF"/>
<path d="M110.131 251.642V256.295L114.319 253.873L114.165 199.236L66.5847 226.664L66.7395 281.347L70.9284 278.924V274.271L106.124 253.982L110.131 251.642ZM70.8282 229.086L109.985 206.484L110.04 224.223L70.8828 246.825L70.8282 229.086ZM70.892 251.678L110.049 229.077V229.132L110.103 246.807L70.9466 269.408L70.892 251.678Z" fill="#E6E6E6"/>
<path d="M110.085 246.806L110.031 229.122V229.077L70.8921 251.678L70.9376 269.408L110.085 246.806Z" fill="#E0E0E0"/>
<path d="M110.021 224.223L109.967 206.484L70.8284 229.086L70.8739 246.825L110.021 224.223Z" fill="#E0E0E0"/>
<path d="M66.5846 226.673L25.033 202.523L25.1878 257.206L66.7394 281.355L66.5846 226.673Z" fill="#E0E0E0"/>
<path d="M66.5846 226.673L114.174 199.19L72.6311 175.05L25.033 202.523L66.5846 226.673Z" fill="#E0E0E0"/>
<path d="M106.124 253.955L110.14 256.295L110.131 251.642L106.124 253.955Z" fill="#E6E6E6"/>
<path d="M109.967 206.484L70.8284 229.086L109.967 206.484Z" fill="#CFCFCF"/>
<path opacity="0.8" d="M110.085 246.806L110.031 229.122V229.077L70.8921 251.678L70.9376 269.408L110.085 246.806Z" fill="white"/>
<path opacity="0.8" d="M110.021 224.223L109.967 206.484L70.8284 229.086L70.8739 246.825L110.021 224.223Z" fill="white"/>
<path d="M97.209 220.453L97.1907 218.003L83.6316 225.826L83.6498 228.275L97.209 220.453Z" fill="#E0E0E0"/>
<path d="M97.209 242.727L97.1907 240.277L83.6316 248.1L83.6498 250.549L97.209 242.727Z" fill="#E0E0E0"/>
<path d="M66.5846 226.673L25.033 202.523L25.1878 257.206L66.7394 281.355L66.5846 226.673Z" fill="#EBEBEB"/>
<path d="M66.5846 226.673L114.174 199.19L72.6311 175.05L25.033 202.523L66.5846 226.673Z" fill="#F0F0F0"/>
<path opacity="0.1" d="M207.003 52.9535C206.326 51.766 205.325 50.7962 204.116 50.1579C199.672 47.5991 192.487 47.5991 188.071 50.1579C186.872 50.7964 185.882 51.767 185.221 52.9535C184.11 55.1845 185.075 57.6978 188.125 59.4553C192.569 62.0233 199.754 62.0233 204.171 59.4553C207.203 57.6978 208.141 55.1845 207.003 52.9535Z" fill="black"/>
<path d="M207.458 204.335C207.385 205.947 206.292 207.549 204.171 208.779C199.754 211.347 192.569 211.347 188.125 208.779C185.985 207.549 184.884 205.947 184.783 204.335V207.914C184.783 209.598 185.904 211.283 188.125 212.567C192.569 215.126 199.754 215.126 204.171 212.567C206.383 211.283 207.476 209.598 207.458 207.914V204.335Z" fill="#E0E0E0"/>
<path d="M188.125 208.779C192.569 211.347 199.754 211.347 204.17 208.779C206.292 207.55 207.385 205.947 207.458 204.335C207.488 203.621 207.331 202.912 207.002 202.277C206.326 201.09 205.324 200.12 204.116 199.482C199.672 196.923 192.487 196.923 188.071 199.482C186.87 200.114 185.88 201.082 185.22 202.268C184.901 202.905 184.75 203.614 184.783 204.326C184.883 205.947 185.985 207.541 188.125 208.779Z" fill="#F0F0F0"/>
<path d="M187.561 86.0181H187.224V115.932H187.561V86.0181Z" fill="#E0E0E0"/>
<path d="M188.198 116.26C188.198 116.424 188.15 116.584 188.059 116.72C187.968 116.856 187.838 116.963 187.687 117.025C187.535 117.088 187.369 117.105 187.208 117.073C187.047 117.041 186.9 116.962 186.784 116.846C186.668 116.73 186.589 116.582 186.557 116.421C186.525 116.261 186.541 116.094 186.604 115.943C186.667 115.791 186.773 115.662 186.909 115.571C187.046 115.48 187.206 115.431 187.37 115.431C187.589 115.431 187.8 115.518 187.956 115.674C188.111 115.829 188.198 116.04 188.198 116.26Z" fill="#F0F0F0"/>
<path d="M198.16 75.2363H194.081V203.151C194.096 203.331 194.159 203.503 194.263 203.651C194.367 203.798 194.508 203.915 194.673 203.989C195.119 204.218 195.614 204.337 196.116 204.337C196.618 204.337 197.113 204.218 197.559 203.989C197.724 203.916 197.865 203.799 197.968 203.652C198.071 203.504 198.131 203.331 198.142 203.151L198.16 75.2363Z" fill="#E0E0E0"/>
<path d="M219.551 80.7459C216.937 71.6397 206.984 52.9629 206.984 52.9629C208.123 55.1939 207.185 57.7072 204.152 59.4647C199.736 62.0327 192.551 62.0327 188.107 59.4647C185.057 57.7072 184.091 55.1939 185.202 52.9629C185.202 52.9629 175.249 71.6853 172.645 80.7459C170.878 85.299 173.045 90.2164 179.147 93.7405C188.572 99.2042 203.806 99.2042 213.177 93.7405C219.25 90.2073 221.363 85.2626 219.551 80.7459Z" fill="#F0F0F0"/>
<path d="M207.003 52.9535C206.326 51.766 205.325 50.7962 204.116 50.1579C199.672 47.5991 192.487 47.5991 188.071 50.1579C186.872 50.7964 185.882 51.767 185.221 52.9535C184.11 55.1845 185.075 57.6978 188.125 59.4553C192.569 62.0233 199.754 62.0233 204.171 59.4553C207.203 57.6978 208.141 55.1845 207.003 52.9535Z" fill="#E0E0E0"/>
<path opacity="0.05" d="M61.0572 192.26C66.3479 189.21 74.8804 189.21 80.1803 192.26C85.4801 195.311 85.3981 200.255 80.1165 203.306C74.8349 206.357 66.2933 206.357 60.9935 203.306C55.6937 200.255 55.7756 195.311 61.0572 192.26Z" fill="black"/>
<path d="M56.4766 173.055L70.9737 173.483L85.4708 173.055C86.0991 182.853 84.1868 192.825 81.546 197.697C80.9239 198.95 79.9194 199.974 78.6776 200.62C74.3977 203.087 67.486 203.087 63.197 200.62C61.9408 199.962 60.9359 198.909 60.3377 197.624C57.7424 192.725 55.8574 182.799 56.4766 173.055Z" fill="white"/>
<path d="M60.7568 167.118C55.0745 170.405 55.0472 175.714 60.6931 178.956C66.3389 182.198 75.5089 182.243 81.1911 178.956C86.8734 175.669 86.9007 170.36 81.2549 167.118C75.609 163.876 66.4391 163.831 60.7568 167.118Z" fill="#EBEBEB"/>
<path d="M63.006 168.429C58.5713 170.988 58.544 175.131 62.9514 177.69C67.3588 180.249 74.5163 180.249 78.9419 177.69C83.3675 175.131 83.4039 170.988 78.9965 168.429C74.5891 165.87 67.4316 165.87 63.006 168.429Z" fill="#E0E0E0"/>
<g opacity="0.15">
<path d="M63.006 168.429C58.5713 170.988 58.544 175.131 62.9514 177.69C67.3588 180.249 74.5163 180.249 78.9419 177.69C83.3675 175.131 83.4039 170.988 78.9965 168.429C74.5891 165.87 67.4316 165.87 63.006 168.429Z" fill="black"/>
</g>
<path d="M72.185 173.465C71.0231 174.44 69.6457 175.125 68.1667 175.462C66.6877 175.8 65.1496 175.78 63.6798 175.405C62.2645 174.974 60.9789 174.197 59.9391 173.144C58.8993 172.092 58.1381 170.797 57.7243 169.376C59.4412 168.56 61.013 167.468 62.3776 166.144C60.2012 165.603 57.9167 165.685 55.7847 166.38C55.1953 165.453 54.8423 164.395 54.7566 163.3C54.6708 162.205 54.855 161.105 55.2929 160.097C57.7667 158.996 60.5493 158.803 63.1516 159.551C62.0751 158.615 60.8184 157.911 59.4589 157.48C58.0994 157.049 56.6661 156.902 55.2474 157.047C55.042 152.891 55.6929 148.738 57.1597 144.844C62.5597 145.117 67.8049 147.449 69.5715 149.124C69.6543 151.059 69.4518 152.995 68.9705 154.87C69.668 154.512 70.264 153.984 70.7033 153.335C71.1426 152.685 71.411 151.936 71.4838 151.155C74.8622 152.002 76.3101 153.686 76.8382 154.979C76.3506 157.382 75.246 159.617 73.6329 161.463C76.8109 160.507 78.104 156.965 78.104 156.965C81.1819 164.368 80.5809 172.746 72.185 173.465Z" fill="url(#paint0_linear_196_779)"/>
<path opacity="0.2" d="M72.185 173.465C71.0231 174.44 69.6457 175.125 68.1667 175.462C66.6877 175.8 65.1496 175.78 63.6798 175.405C62.2645 174.974 60.9789 174.197 59.9391 173.144C58.8993 172.092 58.1381 170.797 57.7243 169.376C59.4412 168.56 61.013 167.468 62.3776 166.144C60.2012 165.603 57.9167 165.685 55.7847 166.38C55.1953 165.453 54.8423 164.395 54.7566 163.3C54.6708 162.205 54.855 161.105 55.2929 160.097C57.7667 158.996 60.5493 158.803 63.1516 159.551C62.0751 158.615 60.8184 157.911 59.4589 157.48C58.0994 157.049 56.6661 156.902 55.2474 157.047C55.042 152.891 55.6929 148.738 57.1597 144.844C62.5597 145.117 67.8049 147.449 69.5715 149.124C69.6543 151.059 69.4518 152.995 68.9705 154.87C69.668 154.512 70.264 153.984 70.7033 153.335C71.1426 152.685 71.411 151.936 71.4838 151.155C74.8622 152.002 76.3101 153.686 76.8382 154.979C76.3506 157.382 75.246 159.617 73.6329 161.463C76.8109 160.507 78.104 156.965 78.104 156.965C81.1819 164.368 80.5809 172.746 72.185 173.465Z" fill="black"/>
<path opacity="0.3" d="M72.185 173.465C71.0231 174.44 69.6457 175.125 68.1667 175.462C66.6877 175.8 65.1496 175.78 63.6798 175.405C62.2645 174.974 60.9789 174.197 59.9391 173.144C58.8993 172.092 58.1381 170.797 57.7243 169.376C59.4412 168.56 61.013 167.468 62.3776 166.144C60.2012 165.603 57.9167 165.685 55.7847 166.38C55.1953 165.453 54.8423 164.395 54.7566 163.3C54.6708 162.205 54.855 161.105 55.2929 160.097C57.7667 158.996 60.5493 158.803 63.1516 159.551C62.0751 158.615 60.8184 157.911 59.4589 157.48C58.0994 157.049 56.6661 156.902 55.2474 157.047C55.042 152.891 55.6929 148.738 57.1597 144.844C62.5597 145.117 67.8049 147.449 69.5715 149.124C69.6543 151.059 69.4518 152.995 68.9705 154.87C69.668 154.512 70.264 153.984 70.7033 153.335C71.1426 152.685 71.411 151.936 71.4838 151.155C74.8622 152.002 76.3101 153.686 76.8382 154.979C76.3506 157.382 75.246 159.617 73.6329 161.463C76.8109 160.507 78.104 156.965 78.104 156.965C81.1819 164.368 80.5809 172.746 72.185 173.465Z" fill="white"/>
<path d="M72.3763 174.266C72.417 174.264 72.4568 174.254 72.4935 174.236C72.5301 174.218 72.563 174.193 72.59 174.163C72.6171 174.132 72.6379 174.097 72.6512 174.058C72.6645 174.02 72.6701 173.979 72.6677 173.938C72.1486 167.109 68.2421 155.844 58.9355 146.547C58.9081 146.51 58.8732 146.48 58.8331 146.458C58.793 146.436 58.7487 146.423 58.7031 146.42C58.6576 146.417 58.6119 146.424 58.5691 146.44C58.5263 146.456 58.4875 146.481 58.4552 146.513C58.4229 146.545 58.3979 146.584 58.3819 146.627C58.366 146.669 58.3594 146.715 58.3626 146.761C58.3659 146.806 58.3788 146.851 58.4007 146.891C58.4226 146.931 58.4528 146.966 58.4893 146.993C67.6866 156.163 71.5385 167.264 72.0393 173.984C72.0485 174.065 72.0886 174.14 72.1514 174.192C72.2141 174.245 72.2946 174.271 72.3763 174.266Z" fill="#F5F5F5"/>
<path d="M69.8176 177.125C70.9015 178.009 72.1788 178.625 73.5456 178.921C74.9123 179.218 76.3298 179.187 77.6825 178.832C79.0353 178.477 80.285 177.808 81.3299 176.878C82.3748 175.948 83.1853 174.785 83.6954 173.483C82.1429 172.777 80.723 171.81 79.4975 170.624C81.5533 170.132 83.7026 170.195 85.7261 170.806C86.3432 170.028 86.7509 169.104 86.9103 168.124C87.0697 167.144 86.9755 166.139 86.6368 165.205C84.281 164.237 81.67 164.08 79.2152 164.759C81.3986 163.052 84.1491 162.238 86.9099 162.483C87.3824 158.808 87.0277 155.075 85.8718 151.555C80.7177 151.865 75.6182 153.996 73.8516 155.507C73.6511 157.207 73.7218 158.929 74.0611 160.607C73.4365 160.311 72.906 159.848 72.5283 159.27C72.1506 158.691 71.9404 158.019 71.9211 157.329C68.6975 158.112 67.2405 159.623 66.6668 160.762C66.9767 162.878 67.8796 164.864 69.2712 166.489C66.3572 165.661 65.3647 162.537 65.3647 162.537C61.9771 169.112 62.0227 176.497 69.8176 177.125Z" fill="url(#paint1_linear_196_779)"/>
<path opacity="0.3" d="M69.8176 177.125C70.9015 178.009 72.1788 178.625 73.5456 178.921C74.9123 179.218 76.3298 179.187 77.6825 178.832C79.0353 178.477 80.285 177.808 81.3299 176.878C82.3748 175.948 83.1853 174.785 83.6954 173.483C82.1429 172.777 80.723 171.81 79.4975 170.624C81.5533 170.132 83.7026 170.195 85.7261 170.806C86.3432 170.028 86.7509 169.104 86.9103 168.124C87.0697 167.144 86.9755 166.139 86.6368 165.205C84.281 164.237 81.67 164.08 79.2152 164.759C81.3986 163.052 84.1491 162.238 86.9099 162.483C87.3824 158.808 87.0277 155.075 85.8718 151.555C80.7177 151.865 75.6182 153.996 73.8516 155.507C73.6511 157.207 73.7218 158.929 74.0611 160.607C73.4365 160.311 72.906 159.848 72.5283 159.27C72.1506 158.691 71.9404 158.019 71.9211 157.329C68.6975 158.112 67.2405 159.623 66.6668 160.762C66.9767 162.878 67.8796 164.864 69.2712 166.489C66.3572 165.661 65.3647 162.537 65.3647 162.537C61.9771 169.112 62.0227 176.497 69.8176 177.125Z" fill="white"/>
<path d="M69.608 177.863C69.6828 177.864 69.7553 177.838 69.8122 177.789C69.8692 177.741 69.9066 177.673 69.9176 177.599C70.8282 171.653 75.1263 161.791 84.3782 153.55C84.4346 153.489 84.4659 153.409 84.4659 153.326C84.4659 153.244 84.4346 153.164 84.3782 153.103C84.3187 153.045 84.2386 153.012 84.1551 153.012C84.0717 153.012 83.9916 153.045 83.932 153.103C74.5617 161.454 70.1817 171.48 69.2801 177.526C69.267 177.607 69.2864 177.69 69.3342 177.756C69.382 177.823 69.4543 177.868 69.5351 177.881L69.608 177.863Z" fill="white"/>
<path d="M64.4174 311.224L47.2339 311.724L30.0414 311.224C29.3038 322.834 31.5713 334.654 34.6947 340.436C35.4362 341.92 36.6284 343.132 38.1004 343.897C43.1726 346.829 51.3682 346.829 56.4039 343.897C57.8981 343.119 59.0948 341.871 59.8096 340.345C62.9148 334.536 65.155 322.77 64.4174 311.224Z" fill="white"/>
<path d="M59.3453 304.185C66.0748 308.073 66.1112 314.375 59.4272 318.263C52.7433 322.151 41.8522 322.151 35.1136 318.263C28.3751 314.375 28.3477 308.073 35.0408 304.185C41.7339 300.296 52.6158 300.296 59.3453 304.185Z" fill="#EBEBEB"/>
<path d="M56.6862 305.733C61.9405 308.765 61.9678 313.683 56.7408 316.715C51.5138 319.747 43.0815 319.747 37.7817 316.715C32.4819 313.683 32.5001 308.765 37.7179 305.733C42.9358 302.7 51.4319 302.7 56.6862 305.733Z" fill="#E0E0E0"/>
<g opacity="0.15">
<path d="M56.6862 305.733C61.9405 308.765 61.9678 313.683 56.7408 316.715C51.5138 319.747 43.0815 319.747 37.7817 316.715C32.4819 313.683 32.5001 308.765 37.7179 305.733C42.9358 302.7 51.4319 302.7 56.6862 305.733Z" fill="black"/>
</g>
<path d="M75.4907 237.882C36.762 250.567 36.4068 276.474 45.1397 294.96C47.3434 298.703 54.0091 300.706 59.8098 277.758L49.629 279.024L61.4671 273.014L64.5541 263.808L54.6648 264.545L67.2131 259.264C69.5316 251.974 72.296 244.833 75.4907 237.882Z" fill="url(#paint2_linear_196_779)"/>
<path opacity="0.2" d="M75.4907 237.882C36.762 250.567 36.4068 276.474 45.1397 294.96C47.3434 298.703 54.0091 300.706 59.8098 277.758L49.629 279.024L61.4671 273.014L64.5541 263.808L54.6648 264.545L67.2131 259.264C69.5316 251.974 72.296 244.833 75.4907 237.882Z" fill="black"/>
<path opacity="0.2" d="M75.4907 237.882C36.762 250.567 36.4068 276.474 45.1397 294.96C47.3434 298.703 54.0091 300.706 59.8098 277.758L49.629 279.024L61.4671 273.014L64.5541 263.808L54.6648 264.545L67.2131 259.264C69.5316 251.974 72.296 244.833 75.4907 237.882Z" fill="white"/>
<path d="M64.5359 244.366C44.1106 259.847 42.2621 277.64 48.0354 296.19C45.9956 279.853 43.7919 263.334 64.5359 244.366Z" fill="white"/>
<path d="M9.8894 264.199C48.0626 269.581 52.6886 293.649 47.6346 312.289C46.205 316.132 40.3497 319.11 31.116 298.703L40.805 298.22L28.7666 294.578L24.3683 286.519L33.693 285.562L21.1356 282.73C17.7712 276.328 14.0153 270.139 9.8894 264.199Z" fill="url(#paint3_linear_196_779)"/>
<path opacity="0.2" d="M9.8894 264.199C48.0626 269.581 52.6886 293.649 47.6346 312.289C46.205 316.132 40.3497 319.11 31.116 298.703L40.805 298.22L28.7666 294.578L24.3683 286.519L33.693 285.562L21.1356 282.73C17.7712 276.328 14.0153 270.139 9.8894 264.199Z" fill="white"/>
<path d="M21.1628 268.416C42.7628 279.461 47.4343 295.734 45.1395 313.947C44.3199 298.393 43.637 282.639 21.1628 268.416Z" fill="white"/>
<path opacity="0.1" d="M9.8894 264.199C48.0626 269.581 52.6886 293.649 47.6346 312.289C46.205 316.132 40.3497 319.11 31.116 298.703L40.805 298.22L28.7666 294.578L24.3683 286.519L33.693 285.562L21.1356 282.73C17.7712 276.328 14.0153 270.139 9.8894 264.199Z" fill="black"/>
<path d="M86.664 273.224C51.6506 273.797 44.7754 294.978 47.2614 312.38C48.1174 316.023 53.0803 319.337 63.6526 301.981L54.9926 300.424L66.2478 298.502L71.1106 291.737L62.8148 289.824L74.4525 288.677C78.2029 283.281 82.281 278.12 86.664 273.224Z" fill="url(#paint4_linear_196_779)"/>
<path d="M76.0279 275.764C55.3204 283.295 49.3012 297.419 49.3194 314.083C51.7963 300.187 54.1821 286.063 76.0279 275.764Z" fill="white"/>
<path opacity="0.2" d="M86.664 273.224C51.6506 273.797 44.7754 294.978 47.2614 312.38C48.1174 316.023 53.0803 319.337 63.6526 301.981L54.9926 300.424L66.2478 298.502L71.1106 291.737L62.8148 289.824L74.4525 288.677C78.2029 283.281 82.281 278.12 86.664 273.224Z" fill="white"/>
<path d="M380.102 68.2157C379.166 66.3021 377.675 64.7153 375.822 63.6626L264.499 0.328933C263.978 0.130179 263.427 0.0223728 262.869 0.0102155C257.132 -0.108165 251.377 5.29182 250.566 8.12385C250.382 8.48167 250.286 8.87797 250.284 9.28034V249.994C250.283 251.873 250.78 253.719 251.724 255.344C252.667 256.969 254.024 258.315 255.657 259.246L366.989 322.689C367.128 322.756 367.271 322.814 367.417 322.862C374.056 325.676 381.131 319.82 381.131 313.692V72.9145C381.151 71.2903 380.799 69.6831 380.102 68.2157Z" fill="#37474F"/>
<path d="M250.603 8.11456C251.413 5.28253 257.168 -0.0810274 262.905 0.000928515C263.454 0.0161767 263.996 0.123932 264.508 0.319646L375.786 63.6624C377.424 64.5944 378.79 65.9385 379.749 67.5614C380.707 69.1844 381.225 71.0297 381.25 72.9144V313.719C381.25 319.847 374.174 325.703 367.536 322.889C367.389 322.841 367.246 322.783 367.108 322.716L255.693 259.246C254.061 258.315 252.704 256.969 251.76 255.344C250.817 253.719 250.32 251.873 250.321 249.994V9.28926C250.319 8.88074 250.416 8.47786 250.603 8.11456Z" fill="#455A64"/>
<path d="M365.678 98.3664C365.686 97.427 365.447 96.502 364.983 95.6849C364.519 94.8678 363.848 94.1877 363.037 93.7132L259.627 34.9326C259.222 34.7006 258.762 34.5796 258.295 34.5816C257.828 34.5836 257.37 34.7086 256.967 34.9439C256.563 35.1793 256.229 35.5168 255.997 35.9225C255.766 36.3281 255.645 36.7876 255.648 37.2547V231.417C255.645 232.355 255.89 233.277 256.359 234.089C256.828 234.902 257.503 235.576 258.316 236.043L361.699 294.96C362.103 295.192 362.562 295.313 363.028 295.311C363.494 295.31 363.952 295.186 364.355 294.951C364.758 294.717 365.093 294.381 365.325 293.976C365.557 293.572 365.679 293.114 365.678 292.647V98.3664Z" fill="url(#paint5_linear_196_779)"/>
<path opacity="0.2" d="M365.678 98.3664C365.686 97.427 365.447 96.502 364.983 95.6849C364.519 94.8678 363.848 94.1877 363.037 93.7132L259.627 34.9326C259.222 34.7006 258.762 34.5796 258.295 34.5816C257.828 34.5836 257.37 34.7086 256.967 34.9439C256.563 35.1793 256.229 35.5168 255.997 35.9225C255.766 36.3281 255.645 36.7876 255.648 37.2547V231.417C255.645 232.355 255.89 233.277 256.359 234.089C256.828 234.902 257.503 235.576 258.316 236.043L361.699 294.96C362.103 295.192 362.562 295.313 363.028 295.311C363.494 295.31 363.952 295.186 364.355 294.951C364.758 294.717 365.093 294.381 365.325 293.976C365.557 293.572 365.679 293.114 365.678 292.647V98.3664Z" fill="black"/>
<path opacity="0.3" d="M381.25 72.9143V313.719C381.25 319.847 374.174 325.703 367.536 322.889C367.936 323.034 368.364 323.08 368.786 323.024C369.207 322.968 369.609 322.812 369.957 322.568C370.305 322.324 370.59 322 370.786 321.623C370.983 321.247 371.086 320.828 371.087 320.403V79.5709C371.076 77.4731 370.442 75.4258 369.266 73.6883L380.194 68.2246C380.898 69.687 381.26 71.291 381.25 72.9143Z" fill="black"/>
<path opacity="0.1" d="M262.869 0.00993202C263.417 0.0251802 263.959 0.132935 264.472 0.32865L375.786 63.6623C377.638 64.715 379.13 66.3018 380.066 68.2154L369.138 73.6792C368.229 72.2887 367.002 71.134 365.56 70.3099L254.3 6.97618C253.985 6.7975 253.637 6.68508 253.276 6.64582C252.916 6.60655 252.552 6.64129 252.206 6.74787C251.86 6.85446 251.539 7.03066 251.263 7.26565C250.988 7.50065 250.763 7.78949 250.603 8.11446C251.404 5.29153 257.159 -0.0811301 262.869 0.00993202Z" fill="white"/>
<path d="M296.945 46.7431C296.162 46.2878 295.515 46.6429 295.506 47.5444C295.535 48.0375 295.68 48.5167 295.928 48.9437C296.177 49.3707 296.522 49.7335 296.936 50.0031L318.79 62.6152C319.574 63.0705 320.202 62.688 320.211 61.7865C320.184 61.2986 320.042 60.824 319.797 60.4014C319.552 59.9788 319.21 59.6203 318.8 59.3552L296.945 46.7431Z" fill="#307D0B"/>
<path d="M324.391 62.5878C323.608 62.1415 322.979 62.4967 322.979 63.3982C323.001 63.8898 323.14 64.3691 323.384 64.7966C323.628 65.2241 323.97 65.5875 324.382 65.8569C325.165 66.3031 325.811 65.9388 325.811 65.0373C325.785 64.5458 325.642 64.0675 325.396 63.6417C325.149 63.216 324.804 62.8547 324.391 62.5878Z" fill="#307D0B"/>
<path d="M310.413 44.9129C308.847 44.0023 307.59 44.7217 307.581 46.5247C307.631 47.5052 307.912 48.4598 308.401 49.3111C308.89 50.1624 309.573 50.8863 310.395 51.4239C311.952 52.3345 313.254 51.5878 313.254 49.7939C313.198 48.8141 312.911 47.8615 312.417 47.0134C311.924 46.1653 311.237 45.4457 310.413 44.9129Z" fill="#307D0B"/>
<path d="M310.403 271.603C307.225 269.781 304.657 271.229 304.648 274.881C304.742 276.884 305.309 278.836 306.303 280.577C307.297 282.318 308.69 283.799 310.367 284.898C313.545 286.719 316.186 285.225 316.195 281.574C316.081 279.574 315.497 277.628 314.491 275.896C313.485 274.164 312.084 272.693 310.403 271.603Z" fill="#307D0B"/>
<path d="M348.203 105.005C348.076 104.668 347.93 104.331 347.775 104.003C347.141 102.708 346.23 101.567 345.107 100.661C344.721 100.359 344.313 100.085 343.887 99.8417L242.835 42.3542C242.669 42.2795 242.495 42.2244 242.316 42.1903C242.016 42.1275 241.712 42.0879 241.406 42.0719C238.155 42.0081 234.895 43.8931 232.728 45.942C231.632 46.893 230.78 48.0918 230.242 49.4388C230.167 49.6006 230.107 49.7681 230.059 49.9397C230.012 50.121 229.987 50.3076 229.987 50.4951V268.98C229.986 270.686 230.438 272.361 231.298 273.834C231.509 274.197 231.744 274.547 231.999 274.881C232.782 275.894 233.757 276.741 234.867 277.376L335.946 334.955C336.07 335.017 336.198 335.072 336.329 335.119C336.329 335.119 336.329 335.119 336.374 335.119C342.403 337.669 348.823 332.387 348.823 326.787V108.283C348.808 107.163 348.598 106.054 348.203 105.005Z" fill="url(#paint6_linear_196_779)"/>
<path d="M230.223 49.4385C230.961 46.8615 236.188 41.9623 241.387 42.0716C241.889 42.0813 242.384 42.1768 242.853 42.3539L343.932 99.8414C345.409 100.695 346.637 101.92 347.495 103.394C348.353 104.868 348.81 106.541 348.822 108.246V326.832C348.822 332.405 342.448 337.714 336.374 335.164C336.374 335.164 336.374 335.164 336.329 335.164C336.198 335.117 336.07 335.062 335.946 335L234.867 277.422C233.386 276.576 232.155 275.354 231.298 273.88C230.441 272.406 229.988 270.731 229.986 269.026V50.4949C229.983 50.1292 230.064 49.7677 230.223 49.4385Z" fill="url(#paint7_linear_196_779)"/>
<path opacity="0.2" d="M348.777 108.283V326.832C348.777 332.405 342.403 337.714 336.329 335.164C336.329 335.164 336.329 335.164 336.283 335.164C336.647 335.295 337.037 335.337 337.42 335.287C337.803 335.236 338.168 335.094 338.485 334.872C338.802 334.651 339.061 334.357 339.24 334.015C339.42 333.672 339.514 333.292 339.516 332.906V114.357C339.508 112.455 338.938 110.598 337.877 109.02L347.775 104.076C348.424 105.384 348.766 106.823 348.777 108.283Z" fill="white"/>
<path opacity="0.4" d="M241.378 42.0716C241.88 42.0813 242.376 42.1768 242.845 42.3539L343.924 99.8414C345.608 100.807 346.963 102.257 347.812 104.003L337.913 108.948C337.087 107.685 335.973 106.636 334.663 105.888L233.584 48.3913C233.296 48.2302 232.979 48.1293 232.651 48.095C232.324 48.0606 231.993 48.0934 231.678 48.1915C231.364 48.2895 231.072 48.4506 230.822 48.6651C230.572 48.8795 230.368 49.1427 230.223 49.4385C230.997 46.8615 236.179 41.9623 241.378 42.0716Z" fill="white"/>
<path opacity="0.3" d="M230.223 49.4385C230.961 46.8615 236.188 41.9623 241.387 42.0716C241.889 42.0813 242.384 42.1768 242.853 42.3539L343.932 99.8414C345.409 100.695 346.637 101.92 347.495 103.394C348.353 104.868 348.81 106.541 348.822 108.246V326.832C348.822 332.405 342.448 337.714 336.374 335.164C336.374 335.164 336.374 335.164 336.329 335.164C336.198 335.117 336.07 335.062 335.946 335L234.867 277.422C233.386 276.576 232.155 275.354 231.298 273.88C230.441 272.406 229.988 270.731 229.986 269.026V50.4949C229.983 50.1292 230.064 49.7677 230.223 49.4385Z" fill="white"/>
<path opacity="0.3" d="M238.847 108.283C238.844 107.176 238.646 106.079 238.264 105.041C238.646 106.079 238.844 107.176 238.847 108.283Z" fill="white"/>
<path d="M329.144 153.914L239.084 101.909C238.219 101.408 237.518 101.809 237.518 102.819L237.372 204.326C237.398 204.873 237.554 205.406 237.826 205.881C238.098 206.356 238.48 206.759 238.938 207.058L328.989 259.055C329.854 259.546 330.556 259.155 330.565 258.144L330.692 156.628C330.667 156.085 330.514 155.557 330.245 155.085C329.976 154.613 329.598 154.212 329.144 153.914Z" fill="url(#paint8_linear_196_779)"/>
<path d="M243.209 68.1792L244.284 68.7984L244.293 64.1998L243.227 63.5806L243.209 68.1792Z" fill="white"/>
<path d="M241.369 67.1138L242.435 67.733L242.453 64.0086L241.378 63.3984L241.369 67.1138Z" fill="white"/>
<path d="M239.53 66.0483L240.595 66.6675L240.605 63.9083L239.539 63.2891L239.53 66.0483Z" fill="white"/>
<path d="M237.69 64.9923L238.756 65.6024L238.765 63.7447L237.69 63.1255V64.9923Z" fill="white"/>
<path d="M247.197 70.4738L253.745 74.262L253.754 70.401L247.206 66.6128L247.197 70.4738Z" fill="white"/>
<path d="M257.005 76.1381L260.283 78.0321L260.292 74.1711L257.014 72.2861L257.005 76.1381Z" fill="white"/>
<path d="M324.627 114.703L324.637 111.588L328.152 113.619L324.637 111.588L324.627 114.703Z" fill="white"/>
<path d="M324.627 114.703L328.152 116.733V113.619L324.637 111.588L324.627 114.703Z" fill="url(#paint9_linear_196_779)"/>
<path d="M330.629 115.568V114.348L323.99 110.514V115.067L330.629 118.901V117.69L331.476 118.182V116.014L330.629 115.568ZM328.152 116.779L324.628 114.749V111.634L328.152 113.665V116.779Z" fill="white"/>
<path d="M314.474 109.248L321.021 113.027L321.039 109.166L314.483 105.387L314.474 109.248Z" fill="white"/>
<path d="M283.203 90.9631L289.75 94.7513L289.769 90.8902L283.212 87.1021L283.203 90.9631Z" fill="white"/>
<path d="M267.878 255.111L267.868 258.963L284.66 268.661L284.678 264.809L267.878 255.111Z" fill="url(#paint10_linear_196_779)"/>
<path d="M292.373 256.669L275.09 246.679L275.072 250.531L292.364 260.512L292.373 256.669Z" fill="url(#paint11_linear_196_779)"/>
<path d="M238.956 235.679L260.183 248.018L260.192 244.175L238.965 231.836L238.956 235.679Z" fill="url(#paint12_linear_196_779)"/>
<path d="M270.437 244.002L238.984 225.753L238.975 229.596L270.427 247.845L270.437 244.002Z" fill="url(#paint13_linear_196_779)"/>
<path d="M264.818 250.695L303.119 272.805L303.128 268.962L264.836 246.852L264.818 250.695Z" fill="url(#paint14_linear_196_779)"/>
<path d="M263.798 252.762L238.984 238.438L238.975 242.281L263.789 256.605L263.798 252.762Z" fill="url(#paint15_linear_196_779)"/>
<path d="M296.826 263.088L327.432 280.763L327.451 276.911L296.836 259.236L296.826 263.088Z" fill="url(#paint16_linear_196_779)"/>
<path d="M307.581 275.382L327.423 286.837L327.432 282.995L307.599 271.539L307.581 275.382Z" fill="url(#paint17_linear_196_779)"/>
<path d="M238.975 255.503L277.275 277.613L277.284 273.77L238.984 251.651L238.975 255.503Z" fill="url(#paint18_linear_196_779)"/>
<path d="M238.984 260.739L238.975 264.591L263.798 278.915V275.063L238.984 260.739Z" fill="url(#paint19_linear_196_779)"/>
<path d="M282.957 286.118L267.823 277.385V281.237L282.948 289.97L282.957 286.118Z" fill="url(#paint20_linear_196_779)"/>
<path d="M241.269 213.624C241.037 213.453 240.763 213.348 240.477 213.319C240.19 213.29 239.901 213.339 239.639 213.46C238.729 213.97 238.729 215.636 239.639 217.184L240.158 218.095L243.4 223.704L246.66 221.883L247.188 221.582C248.099 221.073 248.099 219.397 247.188 217.849C246.805 217.138 246.247 216.536 245.567 216.101C245.333 215.934 245.06 215.832 244.774 215.803C244.488 215.774 244.2 215.82 243.937 215.937L243.409 216.237L242.89 215.326C242.505 214.629 241.946 214.043 241.269 213.624Z" fill="white"/>
<path d="M254.783 221.609C255.947 222.366 256.916 223.388 257.611 224.591C258.306 225.793 258.706 227.143 258.78 228.53C258.806 229.232 258.615 229.925 258.234 230.515L258.762 233.129L256.759 231.362C256.052 231.387 255.355 231.2 254.755 230.825C253.593 230.067 252.625 229.045 251.932 227.842C251.239 226.64 250.84 225.29 250.767 223.904C250.776 221.354 252.57 220.335 254.783 221.609Z" fill="white"/>
<path d="M289.086 139.927L293.739 148.432L300.505 150.791L303.364 159.642L310.203 164.523L310.995 172.846L317.242 179.776L315.867 186.76L320.912 195.047L317.524 200.01L320.875 208.861L315.803 211.311L317.124 219.852L310.859 219.552L310.03 226.946L303.182 223.923L300.286 229.45L293.53 223.996L288.84 227.119L282.839 219.78L276.82 220.18L272.157 211.666L265.4 209.317L262.541 200.456L255.702 195.584L254.919 187.252L248.672 180.331L250.038 173.338L244.993 165.051L248.381 160.088L245.03 151.237L250.111 148.788L248.782 140.246L255.047 140.556L255.875 133.161L262.723 136.175L265.628 130.648L272.376 136.103L277.065 132.988L283.066 140.328L289.086 139.927Z" fill="url(#paint21_linear_196_779)"/>
<g opacity="0.4">
<path d="M289.086 139.927L293.739 148.432L300.505 150.791L303.364 159.642L310.203 164.523L310.995 172.846L317.242 179.776L315.867 186.76L320.912 195.047L317.524 200.01L320.875 208.861L315.803 211.311L317.124 219.852L310.859 219.552L310.03 226.946L303.182 223.923L300.286 229.45L293.53 223.996L288.84 227.119L282.839 219.78L276.82 220.18L272.157 211.666L265.4 209.317L262.541 200.456L255.702 195.584L254.919 187.252L248.672 180.331L250.038 173.338L244.993 165.051L248.381 160.088L245.03 151.237L250.111 148.788L248.782 140.246L255.047 140.556L255.875 133.161L262.723 136.175L265.628 130.648L272.376 136.103L277.065 132.988L283.066 140.328L289.086 139.927Z" fill="white"/>
</g>
<path d="M283.049 146.811C299.021 156.036 311.924 178.392 311.87 196.75C311.815 215.108 298.83 222.502 282.903 213.287C266.976 204.071 254.027 181.706 254.073 163.348C254.118 144.99 267.067 137.596 283.049 146.811Z" fill="url(#paint22_linear_196_779)"/>
<g opacity="0.2">
<path d="M283.049 146.811C299.021 156.036 311.924 178.392 311.87 196.75C311.815 215.108 298.83 222.502 282.903 213.287C266.976 204.071 254.027 181.706 254.073 163.348C254.118 144.99 267.067 137.596 283.049 146.811Z" fill="white"/>
</g>
<path d="M302.718 175.669C303.419 176.069 303.838 177.39 303.21 177.618C297.464 179.712 285.289 184.729 277.858 191.942C277.597 192.142 277.277 192.251 276.947 192.251C276.618 192.251 276.298 192.142 276.037 191.942C275.245 191.46 274.612 190.757 274.215 189.92C270.803 183.052 266.981 176.395 262.769 169.987C262.004 168.821 262.496 167.719 263.406 168.247C263.481 168.289 263.551 168.337 263.616 168.393C268.206 172.253 272.226 176.744 275.554 181.734C286.809 174.503 297.027 174.694 302.417 175.56C302.523 175.578 302.625 175.615 302.718 175.669Z" fill="white"/>
<path d="M245.076 87.5023C246.769 88.6045 248.178 90.0914 249.188 91.8416C250.198 93.5919 250.779 95.556 250.885 97.5738C250.885 101.271 248.254 102.764 245.039 100.907C243.339 99.8085 241.923 98.3234 240.907 96.5729C239.891 94.8224 239.303 92.8562 239.193 90.8352C239.239 87.1381 241.852 85.6446 245.076 87.5023Z" fill="white"/>
<path d="M287.656 116.406L256.203 98.1567L256.194 102.009L287.647 120.258L287.656 116.406Z" fill="white"/>
<path d="M147.32 122.898H148.231C154.15 122.971 161.626 126.996 165.287 137.323L179.502 164.842L163.247 172.026L154.369 146.046L147.32 122.898Z" fill="#FFA8A7"/>
<path d="M158.712 141.174C159.842 144.425 159.914 147.931 160.097 151.364C160.279 154.797 160.67 158.959 162.246 162.019C163.98 160.819 166.056 160.212 168.163 160.289C170.27 160.366 172.296 161.123 173.938 162.447C175.117 163.434 176.023 164.707 176.57 166.144L163.247 172.026L154.369 146.046L150.007 131.722C152.014 132.639 153.818 133.947 155.313 135.57C156.808 137.193 157.964 139.099 158.712 141.174Z" fill="#F28F8F"/>
<path d="M163.102 167.082C163.718 165.549 164.716 164.199 166 163.16C167.285 162.121 168.813 161.427 170.441 161.144C173.683 160.625 177.371 162.319 179.475 164.851C181.241 166.991 180.968 169.886 179.848 172.427C178.915 174.402 177.326 175.992 175.351 176.927C173.377 177.862 171.14 178.083 169.021 177.554C164.832 176.388 161.517 171.116 163.102 167.082Z" fill="#FFA8A7"/>
<path d="M111.442 344.535C111.08 345.263 110.518 345.872 109.82 346.29C109.123 346.708 108.321 346.917 107.508 346.893C106.787 346.755 106.114 346.431 105.558 345.951C105.002 345.472 104.582 344.854 104.339 344.161C103.859 342.784 103.64 341.33 103.693 339.872C103.596 335.016 103.711 330.177 104.039 325.357C107.371 326.06 110.768 326.414 114.174 326.413L112.617 339.845C112.534 341.47 112.135 343.063 111.442 344.535Z" fill="#FFA8A7"/>
<path d="M100.861 337.568C102.117 333.534 103.492 329.373 103.201 325.193L104.039 325.393C103.711 330.22 103.596 335.058 103.693 339.908C103.64 341.366 103.859 342.82 104.339 344.198C104.582 344.891 105.002 345.508 105.558 345.987C106.114 346.467 106.787 346.792 107.508 346.929C108.321 346.953 109.123 346.744 109.82 346.326C110.518 345.908 111.08 345.299 111.442 344.571C112.135 343.099 112.534 341.506 112.617 339.881L114.174 326.486H115.248C114.338 331.494 114.984 336.639 115.303 341.73C115.622 346.82 115.567 352.12 113.382 356.719C112.877 357.961 112.015 359.026 110.905 359.778C110.294 360.109 109.622 360.312 108.93 360.375C108.238 360.437 107.54 360.358 106.88 360.142C105.563 359.7 104.366 358.958 103.383 357.975C101.155 355.841 99.6711 353.048 99.1487 350.007C98.4384 345.828 99.604 341.593 100.861 337.568Z" fill="#455A64"/>
<path d="M153.668 333.707L152.839 338.698C148.878 336.803 147.603 334.682 147.603 334.682C147.503 330.857 147.548 326.914 147.603 324.993C148.659 327.324 150.963 328.899 152.402 331.048C152.932 331.879 153.357 332.772 153.668 333.707Z" fill="#455A64"/>
<path d="M154.942 338.151L152.839 338.697L153.668 333.707C154.187 335.137 154.505 336.667 154.942 338.151Z" fill="#455A64"/>
<path opacity="0.2" d="M153.668 333.707L152.839 338.698C148.878 336.803 147.603 334.682 147.603 334.682C147.503 330.857 147.548 326.914 147.603 324.993C148.659 327.324 150.963 328.899 152.402 331.048C152.932 331.879 153.357 332.772 153.668 333.707Z" fill="black"/>
<path opacity="0.3" d="M154.942 338.151L152.839 338.697L153.668 333.707C154.187 335.137 154.505 336.667 154.942 338.151Z" fill="black"/>
<path d="M147.384 319.456C147.804 318.136 148.353 316.861 149.023 315.649C149.081 317.7 149.712 319.694 150.845 321.405C152.265 323.699 154.168 325.675 155.544 328.016C157.21 330.857 158.075 334.199 160.261 336.657C161.339 337.848 162.679 338.772 164.176 339.355C165.673 339.938 167.285 340.165 168.884 340.018C170.085 339.974 171.221 339.464 172.053 338.597C172.386 338.167 172.568 337.639 172.572 337.095C173.65 338.251 174.843 339.295 176.133 340.209C177.571 341.211 179.302 342.267 179.538 344.006C179.576 344.734 179.4 345.456 179.033 346.086C178.666 346.715 178.123 347.223 177.471 347.548C176.151 348.161 174.711 348.472 173.255 348.459C170.139 348.731 167 348.463 163.976 347.667C160.938 346.839 158.308 344.928 156.582 342.294C155.841 340.983 155.283 339.577 154.924 338.114C154.515 336.63 154.168 335.1 153.649 333.671C153.33 332.734 152.896 331.841 152.356 331.012C150.918 328.863 148.614 327.287 147.557 324.956C147.503 324.828 147.439 324.71 147.384 324.583C146.846 322.916 146.846 321.122 147.384 319.456Z" fill="#455A64"/>
<path d="M168.902 340.018C167.303 340.165 165.691 339.938 164.194 339.355C162.697 338.771 161.357 337.848 160.279 336.657C158.093 334.199 157.228 330.857 155.562 328.016C154.187 325.675 152.283 323.699 150.863 321.404C149.73 319.694 149.099 317.7 149.042 315.649L149.561 314.684C153.868 315.449 158.585 315.722 162.728 317.125C164.005 321.48 165.632 325.725 167.591 329.819C168.919 332.467 170.607 334.919 172.608 337.104C172.604 337.648 172.422 338.176 172.089 338.606C171.252 339.474 170.108 339.981 168.902 340.018Z" fill="#FFA8A7"/>
<path d="M157.237 160.279C157.474 163.921 157.708 167.564 157.938 171.206C166.179 205.182 163.721 255.94 163.721 255.94L163.466 317.862C162.298 318.628 160.99 319.154 159.617 319.408C158.244 319.663 156.834 319.642 155.469 319.346C154.104 319.05 152.812 318.486 151.668 317.685C150.524 316.885 149.551 315.865 148.805 314.684C147.402 299.467 140.327 275.527 142.43 256.869C139.58 242.144 137.458 221.2 137.458 221.2L130.529 257.424L116.095 327.332C109.721 330.064 104.066 328.188 102.227 325.711C103.702 287.147 103.073 268.606 109.02 250.776C107.199 202.942 106.616 181.323 118.272 164.887L118.126 158.676L157.237 160.279Z" fill="url(#paint23_linear_196_779)"/>
<path opacity="0.3" d="M157.237 160.279C157.474 163.921 157.708 167.564 157.938 171.206C166.179 205.182 163.721 255.94 163.721 255.94L163.466 317.862C162.298 318.628 160.99 319.154 159.617 319.408C158.244 319.663 156.834 319.642 155.469 319.346C154.104 319.05 152.812 318.486 151.668 317.685C150.524 316.885 149.551 315.865 148.805 314.684C147.402 299.467 140.327 275.527 142.43 256.869C139.58 242.144 137.458 221.2 137.458 221.2L130.529 257.424L116.095 327.332C109.721 330.064 104.066 328.188 102.227 325.711C103.702 287.147 103.073 268.606 109.02 250.776C107.199 202.942 106.616 181.323 118.272 164.887L118.126 158.676L157.237 160.279Z" fill="black"/>
<path opacity="0.2" d="M139.025 213.123C143.34 212.341 147.402 210.526 150.863 207.832C150.2 209.748 149.058 211.463 147.545 212.813C146.033 214.163 144.2 215.103 142.221 215.545L138.579 230.643L137.486 221.3L139.025 213.123Z" fill="black"/>
<path d="M142.849 122.261L147.029 122.57C147.832 122.63 148.612 122.871 149.309 123.274C150.006 123.678 150.602 124.234 151.054 124.902L160.706 139.198C162.127 141.289 162.823 143.787 162.69 146.311C162.557 148.835 161.601 151.247 159.969 153.176C159.358 153.896 158.905 154.735 158.638 155.64C158.372 156.545 158.298 157.495 158.421 158.431L161.717 191.058C142.74 205.145 116.86 196.695 108.227 192.096C108.555 185.021 111.551 175.796 115.139 169.495C116.288 167.491 117.028 165.279 117.314 162.987C117.6 160.695 117.427 158.369 116.805 156.145L114.073 146.338L118.026 122.989L142.849 122.261Z" fill="#455A64"/>
<path d="M158.649 89.1597C158.977 90.9172 160.361 96.2079 158.977 99.1765C158.312 100.588 157.565 101.444 158.066 102.928C158.567 104.413 160.652 105.269 160.934 106.908C161.171 108.228 160.133 109.375 159.496 110.55C159.048 111.387 158.79 112.312 158.742 113.26C158.693 114.208 158.855 115.155 159.215 116.033C159.576 116.911 160.125 117.698 160.826 118.339C161.526 118.979 162.359 119.457 163.266 119.738C162.05 119.661 160.866 119.318 159.797 118.732C158.729 118.147 157.802 117.334 157.082 116.351C156.438 115.364 156.027 114.243 155.882 113.074C155.737 111.905 155.861 110.717 156.245 109.603C156.527 108.972 156.732 108.308 156.855 107.627C156.964 106.279 156.063 105.086 155.352 103.93C153.753 101.424 153.08 98.4381 153.449 95.4885C153.859 92.529 156.035 90.4892 158.649 89.1597Z" fill="#307D0B"/>
<path d="M158.977 92.4836C158.965 89.6463 158.251 86.856 156.9 84.3609C153.258 77.3036 145.809 72.1677 137.877 72.0493C134.132 71.9396 130.455 73.066 127.414 75.2547C124.1 77.7316 121.951 81.5289 120.758 85.4901C119.481 89.2463 119.323 93.2925 120.302 97.1369C121.404 100.916 124.173 104.331 127.906 105.587C130.361 106.278 132.936 106.43 135.455 106.034C140.868 105.458 146.186 104.197 151.282 102.282C153.194 101.563 155.134 101.007 156.436 99.3771C158.022 97.4236 158.916 94.9992 158.977 92.4836Z" fill="#307D0B"/>
<path d="M142.849 113.746V123.016C142.849 123.016 150.417 127.852 147.229 130.411C141.219 135.246 128.325 122.962 128.325 122.962V107.5L142.849 113.746Z" fill="#FFA8A7"/>
<path d="M128.325 107.5C130.101 115.622 138.679 120.622 142.849 121.632V113.746L128.325 107.5Z" fill="#F28F8F"/>
<path d="M118.599 98.4937C119.143 97.4713 120.056 96.6944 121.152 96.3211C122.248 95.9477 123.445 96.006 124.499 96.484C125.554 96.962 126.387 97.8238 126.828 98.8941C127.27 99.9644 127.287 101.163 126.877 102.245C127.273 102.407 127.702 102.469 128.128 102.427C128.553 102.384 128.962 102.237 129.317 102C130.048 101.493 130.597 100.765 130.884 99.9234C131.155 98.7908 131.347 97.6406 131.457 96.4812C133.77 96.117 135.1 92.3106 135.1 91.9281C135.664 92.0374 146.392 92.5291 149.852 86.3096C154.523 87.1018 156.108 92.5746 156.226 92.5473C156.579 94.4751 156.729 96.4345 156.672 98.3935C156.5 102.417 155.787 106.399 154.551 110.232C153.64 113.264 152.839 116.36 149.761 117.935C147.967 118.786 145.966 119.103 143.997 118.846C136.775 118.108 129.964 112.545 126.695 106.216C126.121 106.91 125.322 107.381 124.437 107.547C123.552 107.714 122.637 107.565 121.85 107.126C120.514 106.12 119.435 104.813 118.7 103.311C118.332 102.564 118.133 101.746 118.115 100.913C118.098 100.081 118.263 99.2552 118.599 98.4937Z" fill="#FFA8A7"/>
<path d="M146.701 99.0308L150.435 105.942L145.617 106.644L146.701 99.0308Z" fill="#F28F8F"/>
<path d="M140.919 108.784L144.479 110.696C144.152 111.096 143.702 111.379 143.199 111.5C142.696 111.622 142.167 111.576 141.693 111.37C141.286 111.093 140.988 110.685 140.847 110.214C140.706 109.743 140.731 109.238 140.919 108.784Z" fill="#F28F8F"/>
<path opacity="0.3" d="M140.919 108.784L144.479 110.696C144.152 111.096 143.702 111.379 143.199 111.5C142.696 111.622 142.167 111.576 141.693 111.37C141.286 111.093 140.988 110.685 140.847 110.214C140.706 109.743 140.731 109.238 140.919 108.784Z" fill="black"/>
<path d="M142.949 111.543C142.523 111.608 142.086 111.548 141.693 111.37C141.364 111.173 141.102 110.882 140.939 110.535C140.777 110.188 140.722 109.8 140.782 109.421C141.345 109.431 141.882 109.656 142.282 110.051C142.682 110.447 142.915 110.981 142.931 111.543H142.949Z" fill="#F28F8F"/>
<path d="M139.762 99.0127C139.724 99.2818 139.766 99.5564 139.883 99.8017C140 100.047 140.188 100.252 140.422 100.391C140.656 100.529 140.925 100.596 141.197 100.581C141.469 100.567 141.73 100.472 141.947 100.309C142.165 100.146 142.33 99.9221 142.42 99.6656C142.51 99.4092 142.523 99.1317 142.456 98.8682C142.389 98.6047 142.245 98.3671 142.042 98.1853C141.84 98.0035 141.589 97.8858 141.319 97.8471C141.141 97.8213 140.959 97.831 140.783 97.8757C140.608 97.9203 140.444 97.999 140.299 98.1072C140.155 98.2155 140.033 98.3512 139.941 98.5065C139.849 98.6619 139.788 98.8339 139.762 99.0127Z" fill="#307D0B"/>
<path d="M151.245 100.196C151.209 100.465 151.252 100.739 151.371 100.984C151.49 101.228 151.678 101.432 151.912 101.569C152.147 101.706 152.416 101.771 152.687 101.756C152.959 101.74 153.219 101.644 153.436 101.481C153.653 101.317 153.816 101.093 153.906 100.836C153.995 100.58 154.007 100.303 153.939 100.04C153.872 99.7769 153.727 99.5398 153.525 99.3586C153.323 99.1774 153.071 99.0602 152.803 99.0217C152.623 98.996 152.44 99.0061 152.265 99.0513C152.089 99.0965 151.924 99.176 151.78 99.2851C151.635 99.3943 151.513 99.531 151.422 99.6874C151.33 99.8438 151.27 100.017 151.245 100.196Z" fill="#307D0B"/>
<path d="M153.34 94.9608L156.072 97.4741C156.257 97.1201 156.328 96.7176 156.276 96.3216C156.224 95.9255 156.051 95.5552 155.78 95.2613C155.442 94.9887 155.034 94.8162 154.603 94.7631C154.172 94.71 153.734 94.7784 153.34 94.9608Z" fill="#307D0B"/>
<path d="M141.757 93.1482L138.442 94.8146C138.368 94.4197 138.415 94.0115 138.577 93.6441C138.74 93.2766 139.01 92.9672 139.353 92.7566C139.751 92.5959 140.185 92.5475 140.609 92.6165C141.033 92.6855 141.43 92.8694 141.757 93.1482Z" fill="#307D0B"/>
<path d="M131.312 95.7346C131.84 97.6651 132.359 99.8051 131.457 101.599C130.911 102.683 129.891 103.484 129.345 104.568C128.806 105.828 128.666 107.223 128.944 108.565C129.22 109.898 129.394 111.249 129.463 112.608C129.444 113.621 129.22 114.619 128.805 115.542C128.39 116.465 127.792 117.295 127.047 117.981C126.303 118.667 125.427 119.195 124.473 119.533C123.518 119.871 122.505 120.012 121.495 119.948C123.043 120.167 124.919 118.755 125.72 117.407C126.464 116.013 126.747 114.419 126.531 112.854C126.385 111.297 125.957 109.776 125.684 108.237C125.324 106.707 125.324 105.114 125.684 103.584C126.13 102.027 127.177 100.534 126.859 98.9491C126.686 98.084 126.121 97.3282 126.03 96.454C125.987 95.882 126.146 95.3132 126.479 94.8459C126.811 94.3786 127.297 94.0423 127.851 93.8952C129.008 93.6402 131.002 94.6237 131.312 95.7346Z" fill="#307D0B"/>
<path opacity="0.3" d="M143.724 77.1398C142.89 78.1094 141.883 78.9154 140.755 79.5165C136.723 81.8143 132.124 82.9284 127.487 82.731C126.551 82.7416 125.622 82.5651 124.755 82.2119C124.164 81.9154 123.653 81.4794 123.268 80.9416C122.882 80.4038 122.633 79.7803 122.542 79.1249C123.732 76.9361 125.428 75.063 127.487 73.6612C130.482 71.7781 133.968 70.8272 137.504 70.9293C139.601 70.9669 141.682 71.3137 143.678 71.9583C144.158 72.4675 144.491 73.0967 144.643 73.7796C144.739 74.3728 144.706 74.9797 144.548 75.5593C144.389 76.1389 144.108 76.6778 143.724 77.1398Z" fill="black"/>
<path d="M146.492 68.0879C146.046 64.3817 142.968 61.3767 139.444 60.1109C135.908 58.9138 132.06 59.0237 128.598 60.4205C125.159 61.8369 122.176 64.1711 119.974 67.1682C118.372 69.29 117.088 71.8761 117.397 74.526C117.743 77.6039 120.284 80.1446 123.244 81.0916C126.277 81.9462 129.492 81.9083 132.505 80.9823C134.49 80.3995 140.837 77.8498 142.43 76.156C144.488 73.9523 146.847 71.0384 146.492 68.0879Z" fill="#307D0B"/>
<path opacity="0.2" d="M125.839 148.869C127.828 151.721 130.73 153.81 134.066 154.79C137.402 155.77 140.972 155.583 144.188 154.26C142.825 155.583 141.153 156.542 139.323 157.051C137.494 157.561 135.566 157.603 133.716 157.174C130.064 156.236 126.932 152.475 125.839 148.869Z" fill="black"/>
<path d="M150.936 190.111C150.93 190.132 150.93 190.154 150.936 190.175C150.926 190.202 150.926 190.231 150.936 190.257L152.393 191.924C152.387 191.887 152.387 191.851 152.393 191.814C152.447 192.069 152.83 192.06 153.458 191.705L165.67 184.839C166.614 184.294 167.417 183.532 168.01 182.617L178.628 162.847C178.801 162.52 178.792 162.328 178.628 162.237H178.673L177.271 160.571C177.218 160.525 177.15 160.499 177.08 160.498H176.998H176.925H176.852H176.788H176.724H176.661H176.597H176.533H176.46H176.397H176.333H176.26L164.049 167.364H163.985H163.912L163.848 167.41H163.794H163.739H163.693L163.539 167.546V167.592V167.637L163.493 167.692L163.448 167.747V167.81L163.402 167.874V167.938L163.357 168.002L163.311 168.065V168.129V168.184V168.238L152.693 188.008V188.063C152.689 188.081 152.689 188.099 152.693 188.117V188.172C152.689 188.19 152.689 188.208 152.693 188.226C152.69 188.245 152.69 188.263 152.693 188.281C152.45 188.048 152.125 187.921 151.789 187.928C151.452 187.935 151.132 188.075 150.899 188.318C150.666 188.56 150.539 188.886 150.546 189.222C150.553 189.558 150.693 189.878 150.936 190.111ZM178.345 162.201C178.345 162.201 178.391 162.201 178.427 162.201C178.4 162.199 178.373 162.199 178.345 162.201ZM164.14 170.397C164.24 170.296 164.358 170.205 164.477 170.105C164.358 170.205 164.24 170.269 164.14 170.369V170.397ZM163.557 171.007L163.712 170.852L163.557 171.007ZM152.402 191.732C152.398 191.711 152.398 191.69 152.402 191.669C152.397 191.702 152.397 191.736 152.402 191.769C152.402 191.769 152.402 191.714 152.402 191.705V191.732Z" fill="#E0E0E0"/>
<path opacity="0.2" d="M150.936 190.111C150.93 190.132 150.93 190.154 150.936 190.175C150.926 190.202 150.926 190.231 150.936 190.257L152.393 191.924C152.387 191.887 152.387 191.851 152.393 191.814C152.447 192.069 152.83 192.06 153.458 191.705L165.67 184.839C166.614 184.294 167.417 183.532 168.01 182.617L178.628 162.847C178.801 162.52 178.792 162.328 178.628 162.237H178.673L177.271 160.571C177.218 160.525 177.15 160.499 177.08 160.498H176.998H176.925H176.852H176.788H176.724H176.661H176.597H176.533H176.46H176.397H176.333H176.26L164.049 167.364H163.985H163.912L163.848 167.41H163.794H163.739H163.693L163.539 167.546V167.592V167.637L163.493 167.692L163.448 167.747V167.81L163.402 167.874V167.938L163.357 168.002L163.311 168.065V168.129V168.184V168.238L152.693 188.008V188.063C152.689 188.081 152.689 188.099 152.693 188.117V188.172C152.689 188.19 152.689 188.208 152.693 188.226C152.69 188.245 152.69 188.263 152.693 188.281C152.45 188.048 152.125 187.921 151.789 187.928C151.452 187.935 151.132 188.075 150.899 188.318C150.666 188.56 150.539 188.886 150.546 189.222C150.553 189.558 150.693 189.878 150.936 190.111ZM178.345 162.201C178.345 162.201 178.391 162.201 178.427 162.201C178.4 162.199 178.373 162.199 178.345 162.201ZM164.14 170.397C164.24 170.296 164.358 170.205 164.477 170.105C164.358 170.205 164.24 170.269 164.14 170.369V170.397ZM163.557 171.007L163.712 170.852L163.557 171.007ZM152.402 191.732C152.398 191.711 152.398 191.69 152.402 191.669C152.397 191.702 152.397 191.736 152.402 191.769C152.402 191.769 152.402 191.714 152.402 191.705V191.732Z" fill="black"/>
<path opacity="0.2" d="M161.726 169.841V169.786V169.723L161.772 169.659L161.818 169.595V169.531L161.863 169.468V169.404L161.909 169.349L161.954 169.295V169.249V169.203L162.109 169.067H162.154H162.209H162.264L162.327 169.021H162.4H162.464L174.675 162.155H174.748H174.812H174.876H174.949H175.012H175.076H175.14H175.204H175.267H175.34H175.413H175.495C175.565 162.156 175.633 162.182 175.686 162.228L177.134 163.895C177.073 163.822 176.955 163.803 176.779 163.84C176.544 163.899 176.32 163.994 176.114 164.122L165.506 169.295C165.263 169.43 165.031 169.586 164.813 169.759C164.581 169.938 164.359 170.129 164.149 170.333C163.943 170.524 163.748 170.728 163.566 170.943C163.417 171.126 163.283 171.321 163.165 171.526L161.708 169.859L161.726 169.841Z" fill="white"/>
<path d="M108.492 132.041C109.502 124.756 114.547 123.253 117.98 122.989C117.98 122.989 122.287 125.949 122.287 139.135L121.923 172.126L124.345 173.137C131.158 176.048 138.274 178.186 145.563 179.512C149.366 176.495 154.095 174.887 158.949 174.958L157.128 178.319C160.543 180.504 168.256 176.561 168.256 176.561C168.82 181.369 165.706 186.359 161.572 188.891C157.437 191.422 117.998 187.707 109.666 182.289C104.148 178.774 106.361 147.521 108.492 132.041Z" fill="#FFA8A7"/>
<path d="M176.597 166.654C176.862 167.952 177.012 169.272 177.043 170.597C176.74 173.749 175.406 176.713 173.246 179.029C172.796 179.536 172.235 179.932 171.607 180.186C171.291 180.307 170.949 180.343 170.615 180.29C170.281 180.237 169.967 180.098 169.704 179.885C169.241 179.33 169.007 178.621 169.048 177.9C168.946 176.832 169.004 175.755 169.221 174.704C169.435 173.637 170.031 172.685 170.896 172.026C171.57 171.643 172.285 171.337 173.027 171.116C173.759 170.806 174.413 170.336 174.94 169.741L176.597 166.654Z" fill="#FFA8A7"/>
<path d="M179.256 90.1522L204.097 75.8918C206.274 74.6443 211.382 76.3381 211.382 79.8348C211.381 79.5518 211.306 79.2739 211.164 79.029C211.022 78.784 210.819 78.5805 210.574 78.4387C210.329 78.2968 210.051 78.2216 209.768 78.2205C209.485 78.2195 209.206 78.2925 208.96 78.4325L184.109 92.6928C183.294 93.1684 182.638 93.8751 182.224 94.7235L177.398 91.9916C177.835 91.2181 178.478 90.5812 179.256 90.1522Z" fill="url(#paint24_linear_196_779)"/>
<path d="M182.27 94.7234C181.919 95.3957 181.732 96.1414 181.723 96.8998V115.349C181.723 115.632 181.796 115.91 181.937 116.155C182.078 116.4 182.281 116.604 182.525 116.746C182.77 116.889 183.047 116.964 183.33 116.965C183.613 116.965 183.891 116.892 184.137 116.751C183.421 117.189 182.603 117.43 181.765 117.452C180.926 117.474 180.097 117.276 179.359 116.876C178.622 116.477 178.002 115.891 177.562 115.177C177.122 114.464 176.877 113.647 176.852 112.808V94.3591C176.852 93.5259 177.069 92.7071 177.48 91.9824L182.27 94.7234Z" fill="url(#paint25_linear_196_779)"/>
<path opacity="0.4" d="M179.256 90.1522L204.097 75.8918C206.274 74.6443 211.382 76.3381 211.382 79.8348C211.381 79.5518 211.306 79.2739 211.164 79.029C211.022 78.784 210.819 78.5805 210.574 78.4387C210.329 78.2968 210.051 78.2216 209.768 78.2205C209.485 78.2195 209.206 78.2925 208.96 78.4325L184.109 92.6928C183.294 93.1684 182.638 93.8751 182.224 94.7235L177.398 91.9916C177.835 91.2181 178.478 90.5812 179.256 90.1522Z" fill="white"/>
<path opacity="0.2" d="M182.27 94.7234C181.919 95.3957 181.732 96.1414 181.723 96.8998V115.349C181.723 115.632 181.796 115.91 181.937 116.155C182.078 116.4 182.281 116.604 182.525 116.746C182.77 116.889 183.047 116.964 183.33 116.965C183.613 116.965 183.891 116.892 184.137 116.751C183.421 117.189 182.603 117.43 181.765 117.452C180.926 117.474 180.097 117.276 179.359 116.876C178.622 116.477 178.002 115.891 177.562 115.177C177.122 114.464 176.877 113.647 176.852 112.808V94.3591C176.852 93.5259 177.069 92.7071 177.48 91.9824L182.27 94.7234Z" fill="white"/>
<path d="M209.006 78.4322L184.155 92.6925C183.416 93.1182 182.802 93.7313 182.375 94.4699C181.948 95.2084 181.723 96.0465 181.723 96.8996V115.349C181.723 115.632 181.796 115.91 181.937 116.155C182.078 116.4 182.281 116.604 182.525 116.746C182.77 116.888 183.047 116.964 183.33 116.964C183.613 116.965 183.891 116.892 184.137 116.751L208.987 102.555C209.728 102.129 210.343 101.517 210.771 100.778C211.2 100.04 211.426 99.2012 211.428 98.3474V79.8345C211.427 79.5514 211.351 79.2736 211.21 79.0287C211.068 78.7837 210.864 78.5802 210.619 78.4384C210.374 78.2965 210.096 78.2213 209.813 78.2202C209.53 78.2191 209.252 78.2922 209.006 78.4322Z" fill="url(#paint26_linear_196_779)"/>
<path d="M175.741 106.307L181.715 107.427V99.7686L175.532 105.606C175.476 105.658 175.437 105.724 175.417 105.797C175.398 105.871 175.399 105.948 175.42 106.021C175.442 106.093 175.484 106.159 175.54 106.209C175.597 106.26 175.666 106.293 175.741 106.307Z" fill="url(#paint27_linear_196_779)"/>
<path d="M181.715 99.7681L176.815 96.9634L170.641 102.864C170.595 102.908 170.559 102.963 170.537 103.024C170.516 103.084 170.508 103.149 170.516 103.213C170.524 103.277 170.547 103.338 170.583 103.391C170.619 103.444 170.667 103.489 170.723 103.52L175.604 106.252L181.715 99.7681Z" fill="url(#paint28_linear_196_779)"/>
<path opacity="0.2" d="M181.715 99.7681L176.815 96.9634L170.641 102.864C170.595 102.908 170.559 102.963 170.537 103.024C170.516 103.084 170.508 103.149 170.516 103.213C170.524 103.277 170.547 103.338 170.583 103.391C170.619 103.444 170.667 103.489 170.723 103.52L175.604 106.252L181.715 99.7681Z" fill="white"/>
<path d="M205.227 84.3969C205.837 84.0418 206.265 84.743 205.709 85.6263C201.712 91.9354 198.217 98.5487 195.255 105.405C194.951 106.179 194.409 106.836 193.707 107.281C193.492 107.451 193.226 107.543 192.951 107.543C192.677 107.543 192.411 107.451 192.196 107.281C190.721 105.879 189.111 104.628 187.387 103.547C186.914 103.247 187.306 102.145 187.916 101.79C187.989 101.746 188.069 101.715 188.152 101.699C189.952 101.342 191.799 101.289 193.616 101.544C196.645 95.49 200.417 89.8371 204.844 84.7157C204.952 84.5875 205.081 84.4795 205.227 84.3969Z" fill="white"/>
<defs>
<linearGradient id="paint0_linear_196_779" x1="67.2717" y1="144.844" x2="67.2717" y2="175.702" gradientUnits="userSpaceOnUse">
<stop stop-color="#11C75A"/>
<stop offset="1" stop-color="#50D013"/>
</linearGradient>
<linearGradient id="paint1_linear_196_779" x1="75.1682" y1="151.555" x2="75.1682" y2="179.123" gradientUnits="userSpaceOnUse">
<stop stop-color="#11C75A"/>
<stop offset="1" stop-color="#50D013"/>
</linearGradient>
<linearGradient id="paint2_linear_196_779" x1="57.999" y1="237.882" x2="57.999" y2="297.263" gradientUnits="userSpaceOnUse">
<stop stop-color="#11C75A"/>
<stop offset="1" stop-color="#50D013"/>
</linearGradient>
<linearGradient id="paint3_linear_196_779" x1="29.6033" y1="264.199" x2="29.6033" y2="315.06" gradientUnits="userSpaceOnUse">
<stop stop-color="#11C75A"/>
<stop offset="1" stop-color="#50D013"/>
</linearGradient>
<linearGradient id="paint4_linear_196_779" x1="66.7336" y1="273.224" x2="66.7336" y2="315.293" gradientUnits="userSpaceOnUse">
<stop stop-color="#11C75A"/>
<stop offset="1" stop-color="#50D013"/>
</linearGradient>
<linearGradient id="paint5_linear_196_779" x1="310.663" y1="34.5815" x2="310.663" y2="295.311" gradientUnits="userSpaceOnUse">
<stop stop-color="#11C75A"/>
<stop offset="1" stop-color="#50D013"/>
</linearGradient>
<linearGradient id="paint6_linear_196_779" x1="289.405" y1="42.0703" x2="289.405" y2="335.778" gradientUnits="userSpaceOnUse">
<stop stop-color="#11C75A"/>
<stop offset="1" stop-color="#50D013"/>
</linearGradient>
<linearGradient id="paint7_linear_196_779" x1="289.404" y1="42.0698" x2="289.404" y2="335.822" gradientUnits="userSpaceOnUse">
<stop stop-color="#11C75A"/>
<stop offset="1" stop-color="#50D013"/>
</linearGradient>
<linearGradient id="paint8_linear_196_779" x1="284.032" y1="101.693" x2="284.032" y2="259.266" gradientUnits="userSpaceOnUse">
<stop stop-color="#11C75A"/>
<stop offset="1" stop-color="#50D013"/>
</linearGradient>
<linearGradient id="paint9_linear_196_779" x1="326.389" y1="111.588" x2="326.389" y2="116.733" gradientUnits="userSpaceOnUse">
<stop stop-color="#11C75A"/>
<stop offset="1" stop-color="#50D013"/>
</linearGradient>
<linearGradient id="paint10_linear_196_779" x1="276.273" y1="255.111" x2="276.273" y2="268.661" gradientUnits="userSpaceOnUse">
<stop stop-color="#11C75A"/>
<stop offset="1" stop-color="#50D013"/>
</linearGradient>
<linearGradient id="paint11_linear_196_779" x1="283.722" y1="246.679" x2="283.722" y2="260.512" gradientUnits="userSpaceOnUse">
<stop stop-color="#11C75A"/>
<stop offset="1" stop-color="#50D013"/>
</linearGradient>
<linearGradient id="paint12_linear_196_779" x1="249.574" y1="231.836" x2="249.574" y2="248.018" gradientUnits="userSpaceOnUse">
<stop stop-color="#11C75A"/>
<stop offset="1" stop-color="#50D013"/>
</linearGradient>
<linearGradient id="paint13_linear_196_779" x1="254.706" y1="225.753" x2="254.706" y2="247.845" gradientUnits="userSpaceOnUse">
<stop stop-color="#11C75A"/>
<stop offset="1" stop-color="#50D013"/>
</linearGradient>
<linearGradient id="paint14_linear_196_779" x1="283.973" y1="246.852" x2="283.973" y2="272.805" gradientUnits="userSpaceOnUse">
<stop stop-color="#11C75A"/>
<stop offset="1" stop-color="#50D013"/>
</linearGradient>
<linearGradient id="paint15_linear_196_779" x1="251.386" y1="238.438" x2="251.386" y2="256.605" gradientUnits="userSpaceOnUse">
<stop stop-color="#11C75A"/>
<stop offset="1" stop-color="#50D013"/>
</linearGradient>
<linearGradient id="paint16_linear_196_779" x1="312.139" y1="259.236" x2="312.139" y2="280.763" gradientUnits="userSpaceOnUse">
<stop stop-color="#11C75A"/>
<stop offset="1" stop-color="#50D013"/>
</linearGradient>
<linearGradient id="paint17_linear_196_779" x1="317.507" y1="271.539" x2="317.507" y2="286.837" gradientUnits="userSpaceOnUse">
<stop stop-color="#11C75A"/>
<stop offset="1" stop-color="#50D013"/>
</linearGradient>
<linearGradient id="paint18_linear_196_779" x1="258.13" y1="251.651" x2="258.13" y2="277.613" gradientUnits="userSpaceOnUse">
<stop stop-color="#11C75A"/>
<stop offset="1" stop-color="#50D013"/>
</linearGradient>
<linearGradient id="paint19_linear_196_779" x1="251.386" y1="260.739" x2="251.386" y2="278.915" gradientUnits="userSpaceOnUse">
<stop stop-color="#11C75A"/>
<stop offset="1" stop-color="#50D013"/>
</linearGradient>
<linearGradient id="paint20_linear_196_779" x1="275.39" y1="277.385" x2="275.39" y2="289.97" gradientUnits="userSpaceOnUse">
<stop stop-color="#11C75A"/>
<stop offset="1" stop-color="#50D013"/>
</linearGradient>
<linearGradient id="paint21_linear_196_779" x1="282.953" y1="130.648" x2="282.953" y2="229.45" gradientUnits="userSpaceOnUse">
<stop stop-color="#11C75A"/>
<stop offset="1" stop-color="#50D013"/>
</linearGradient>
<linearGradient id="paint22_linear_196_779" x1="282.971" y1="142.847" x2="282.971" y2="217.251" gradientUnits="userSpaceOnUse">
<stop stop-color="#11C75A"/>
<stop offset="1" stop-color="#50D013"/>
</linearGradient>
<linearGradient id="paint23_linear_196_779" x1="133.145" y1="158.676" x2="133.145" y2="328.679" gradientUnits="userSpaceOnUse">
<stop stop-color="#11C75A"/>
<stop offset="1" stop-color="#50D013"/>
</linearGradient>
<linearGradient id="paint24_linear_196_779" x1="194.39" y1="75.4834" x2="194.39" y2="94.7235" gradientUnits="userSpaceOnUse">
<stop stop-color="#11C75A"/>
<stop offset="1" stop-color="#50D013"/>
</linearGradient>
<linearGradient id="paint25_linear_196_779" x1="180.494" y1="91.9824" x2="180.494" y2="117.454" gradientUnits="userSpaceOnUse">
<stop stop-color="#11C75A"/>
<stop offset="1" stop-color="#50D013"/>
</linearGradient>
<linearGradient id="paint26_linear_196_779" x1="196.576" y1="78.2202" x2="196.576" y2="116.964" gradientUnits="userSpaceOnUse">
<stop stop-color="#11C75A"/>
<stop offset="1" stop-color="#50D013"/>
</linearGradient>
<linearGradient id="paint27_linear_196_779" x1="178.559" y1="99.7686" x2="178.559" y2="107.427" gradientUnits="userSpaceOnUse">
<stop stop-color="#11C75A"/>
<stop offset="1" stop-color="#50D013"/>
</linearGradient>
<linearGradient id="paint28_linear_196_779" x1="176.114" y1="96.9634" x2="176.114" y2="106.252" gradientUnits="userSpaceOnUse">
<stop stop-color="#11C75A"/>
<stop offset="1" stop-color="#50D013"/>
</linearGradient>
</defs>
</svg>
